<?xml version="1.0" standalone="no"?>
<!DOCTYPE svg PUBLIC "-//W3C//DTD SVG 20010904//EN"
 "http://www.w3.org/TR/2001/REC-SVG-20010904/DTD/svg10.dtd">
<svg version="1.0" xmlns="http://www.w3.org/2000/svg"
 width="500.000000pt" height="500.000000pt" viewBox="0 0 500.000000 500.000000"
 preserveAspectRatio="xMidYMid meet">
<metadata>
Created by potrace 1.16, written by Peter Selinger 2001-2019
</metadata>
<g transform="translate(0.000000,500.000000) scale(0.100000,-0.100000)"
fill="#000000" stroke="none">
<path d="M2275 4380 c-127 -16 -244 -42 -241 -54 2 -6 1 -8 -1 -3 -8 12 -26 8
-129 -26 -128 -43 -275 -109 -271 -121 9 -28 37 -30 86 -6 28 13 51 27 51 31
0 4 8 8 18 8 9 -1 62 16 118 35 296 105 647 125 982 56 319 -66 647 -244 897
-486 33 -32 65 -57 70 -55 6 1 7 0 3 -4 -4 -4 21 -39 54 -78 33 -40 67 -84 76
-99 13 -22 24 -28 50 -28 l33 0 -33 46 c-18 26 -45 60 -60 76 -16 17 -28 34
-28 38 0 4 -11 11 -25 14 -14 4 -22 12 -20 19 7 17 -103 137 -126 137 -10 0
-19 7 -19 15 0 29 -222 196 -249 187 -8 -3 -11 0 -7 6 7 12 -137 97 -244 142
-41 18 -90 38 -108 46 -18 8 -41 14 -50 14 -10 0 -22 4 -28 9 -12 11 -149 46
-259 66 -105 19 -434 28 -540 15z"/>
<path d="M2280 4289 c-52 -9 -88 -14 -118 -17 -8 -1 -10 -7 -6 -14 6 -10 5
-10 -7 -1 -23 18 -183 -27 -386 -108 -25 -10 -32 -18 -27 -31 5 -16 2 -17 -21
-8 -20 8 -29 6 -44 -9 -11 -11 -23 -16 -26 -13 -4 4 -4 -3 -1 -15 4 -13 3 -23
-3 -23 -5 0 -11 7 -13 15 -2 9 -8 12 -16 6 -9 -5 -11 -17 -7 -34 6 -22 11 -26
30 -21 21 5 25 1 34 -33 6 -21 11 -44 11 -50 0 -7 6 -14 13 -15 6 0 17 -2 22
-2 6 -1 16 -5 24 -10 10 -7 5 -12 -19 -23 -18 -7 -35 -11 -38 -8 -3 3 1 5 9 5
8 0 3 6 -11 14 -30 15 -57 2 -40 -19 8 -10 4 -20 -15 -40 -14 -16 -25 -24 -25
-20 0 4 -8 1 -18 -8 -9 -9 -40 -21 -67 -28 -28 -6 -56 -13 -62 -15 -18 -5 -17
-54 1 -54 8 0 16 -5 18 -11 6 -17 38 2 38 22 0 10 5 19 10 19 6 0 10 -4 10
-10 0 -5 6 -10 13 -10 17 0 19 -62 3 -72 -7 -5 -4 -8 7 -8 9 0 17 4 17 10 0 5
7 7 15 4 11 -5 12 -11 4 -25 -5 -11 -7 -29 -4 -39 7 -22 -5 -26 -23 -8 -8 8
-15 8 -27 -2 -19 -16 -20 -34 0 -27 23 10 26 -8 5 -31 -11 -12 -20 -28 -20
-36 0 -17 -18 -31 -28 -21 -3 3 0 10 8 15 11 7 11 11 1 24 -8 9 -20 16 -27 16
-8 0 -14 9 -14 20 0 26 -20 26 -27 -1 -7 -27 -45 -22 -58 9 -5 12 -17 24 -26
27 -9 3 -16 11 -17 18 0 6 -2 21 -4 31 -2 10 3 21 10 23 8 3 11 -3 10 -18 -2
-12 3 -24 10 -26 7 -3 11 1 10 9 -2 7 4 12 13 10 12 -2 15 5 11 28 -4 26 -1
30 18 30 17 0 20 3 12 13 -8 10 -9 24 -3 68 1 4 15 12 31 19 17 7 30 16 30 21
0 5 11 9 25 9 14 0 25 5 25 11 0 6 -7 8 -15 5 -9 -3 -18 0 -21 8 -6 16 54 82
72 78 19 -4 29 19 13 29 -24 15 -39 10 -51 -16 -8 -19 -14 -22 -24 -14 -7 6
-10 17 -7 25 3 8 -1 14 -10 14 -8 0 -18 6 -21 13 -3 6 -3 -3 0 -21 5 -27 2
-33 -18 -41 -13 -4 -29 -6 -35 -4 -7 3 -13 0 -13 -7 0 -6 -4 -8 -10 -5 -5 3
-10 1 -10 -5 0 -7 -6 -8 -17 -1 -13 7 -27 1 -60 -26 -23 -19 -40 -39 -37 -44
3 -5 -2 -9 -11 -9 -9 0 -13 -5 -10 -11 4 -6 -2 -17 -14 -25 -22 -16 -20 -34 5
-34 8 0 20 12 27 28 6 15 16 30 20 33 5 4 4 10 -2 13 -18 12 -3 25 22 19 45
-11 56 -43 28 -77 -11 -14 -11 -16 3 -16 10 0 15 -4 12 -9 -4 -5 -18 -8 -34
-6 -29 3 -55 -11 -47 -26 3 -4 12 -6 19 -3 7 3 16 -2 19 -10 4 -11 1 -16 -11
-16 -16 -1 -16 -1 1 -14 23 -18 21 -44 -5 -68 -20 -17 -20 -19 -4 -14 27 9 66
-20 66 -48 0 -18 5 -23 25 -23 13 0 23 3 20 7 -2 4 9 7 26 6 20 -1 29 -6 27
-16 -2 -8 -9 -15 -15 -15 -15 0 -45 -40 -36 -48 3 -3 18 -3 34 0 32 6 38 -7
14 -27 -11 -9 -13 -16 -5 -24 5 -5 10 -22 10 -37 0 -28 15 -39 52 -39 14 0 18
-5 14 -16 -3 -9 -6 -23 -6 -31 0 -11 -7 -7 -21 11 -12 16 -28 25 -36 22 -19
-8 -39 44 -21 56 9 6 7 8 -7 6 -16 -3 -20 -10 -18 -41 3 -60 38 -86 72 -54 11
10 13 9 8 -6 -4 -11 -1 -20 8 -23 13 -5 13 -8 0 -21 -9 -9 -13 -24 -9 -39 4
-14 2 -24 -5 -24 -6 0 -11 -4 -11 -10 0 -5 5 -10 12 -10 28 0 88 -35 88 -51 0
-20 -34 -34 -52 -22 -21 12 -42 13 -50 0 -5 -8 -8 -6 -8 6 0 10 6 19 13 21 52
16 53 17 28 27 -13 5 -33 7 -43 3 -16 -5 -19 -2 -14 14 4 11 2 31 -3 46 -6 14
-7 26 -2 26 11 0 -14 54 -32 68 -15 12 -62 -16 -62 -38 0 -9 -14 -17 -40 -21
-22 -4 -40 -6 -41 -5 -1 0 3 16 8 34 9 32 32 43 41 20 3 -9 10 -7 23 7 11 12
27 19 37 17 9 -2 17 1 17 7 0 6 -4 11 -10 11 -5 0 -10 5 -10 11 0 5 5 7 10 4
6 -3 10 1 10 9 0 23 -31 20 -37 -4 -4 -15 -11 -18 -34 -13 -18 3 -29 1 -29 -5
0 -6 -7 -9 -15 -6 -8 3 -22 -1 -30 -10 -16 -15 -35 -20 -62 -17 -7 1 -13 -5
-13 -12 0 -9 13 -16 35 -19 27 -3 35 0 35 12 0 13 1 13 10 0 19 -29 11 -39
-27 -35 -21 2 -43 4 -49 4 -6 1 -21 10 -34 21 -27 24 -42 26 -34 5 4 -8 11
-15 16 -15 6 0 3 -11 -6 -25 -9 -13 -16 -32 -16 -42 -1 -17 -1 -17 -11 0 -8
14 -8 22 0 30 16 16 14 37 -4 37 -18 0 -19 12 -4 27 14 14 3 33 -19 33 -20 0
-43 -32 -34 -47 4 -5 15 -13 25 -16 20 -7 18 -34 -2 -29 -6 1 -11 -2 -11 -8 0
-5 8 -10 18 -10 14 -1 14 -3 -6 -19 -25 -22 -29 -36 -8 -28 10 4 13 1 9 -9 -3
-7 0 -14 7 -14 6 0 8 -4 5 -10 -3 -5 1 -10 9 -10 20 0 20 -14 1 -30 -18 -15
-20 -37 -2 -43 6 -2 8 -8 4 -13 -5 -5 -13 -2 -18 7 -5 9 -20 20 -34 23 -14 4
-25 11 -25 16 0 6 -11 10 -25 10 -14 0 -25 4 -25 10 0 5 6 7 14 4 9 -3 17 3
21 15 11 36 33 19 26 -21 0 -5 3 -8 9 -8 5 0 10 9 10 20 0 11 5 20 12 20 30 0
-11 18 -49 22 -37 3 -42 1 -37 -14 4 -15 0 -18 -24 -18 -25 0 -30 -4 -34 -30
-3 -16 -1 -30 4 -30 5 0 6 -9 3 -20 -4 -11 -2 -20 4 -20 6 0 11 -7 11 -15 0
-24 -20 -18 -30 9 -5 13 -13 27 -19 30 -6 4 -8 13 -4 21 4 11 1 13 -12 9 -10
-4 -21 -1 -26 7 -7 11 -9 11 -9 -3 0 -22 -9 -23 -25 -2 -11 15 -12 15 -18 -5
-4 -18 -1 -21 24 -21 16 0 29 -4 29 -10 0 -5 6 -10 14 -10 7 0 19 -7 26 -15 8
-9 9 -15 2 -15 -6 0 -14 5 -18 11 -3 6 -15 9 -25 6 -11 -3 -19 -2 -19 2 0 4
-12 8 -26 9 -23 2 -25 -1 -20 -22 4 -16 1 -26 -10 -30 -8 -3 -12 -11 -9 -16 4
-6 2 -16 -3 -23 -23 -29 -22 -104 2 -90 6 3 7 2 3 -3 -5 -5 -14 -9 -20 -9 -16
0 -22 -76 -6 -85 6 -5 9 -15 6 -25 -4 -9 -12 -13 -18 -10 -13 9 -8 -27 6 -37
5 -4 2 -10 -8 -14 -29 -11 -16 -144 15 -144 4 0 8 -7 8 -15 0 -8 -4 -15 -10
-15 -11 0 -8 -49 4 -68 7 -12 1 -16 -18 -13 -5 1 -6 -28 -3 -65 3 -48 10 -70
22 -76 13 -8 14 -13 4 -24 -7 -9 -9 -26 -4 -47 3 -17 9 -44 11 -58 11 -63 42
-154 52 -154 5 0 14 -3 18 -7 4 -5 -1 -8 -11 -8 -15 0 -16 -3 -7 -12 7 -7 12
-18 12 -25 0 -29 42 -123 56 -123 9 0 14 -11 14 -32 0 -33 11 -60 24 -59 17 2
20 0 9 -7 -16 -10 92 -193 118 -199 10 -3 16 -9 13 -14 -9 -15 16 -50 34 -48
39 3 44 0 37 -30 -5 -24 2 -37 51 -94 47 -54 60 -64 72 -55 11 10 13 8 11 -7
-5 -30 10 -49 27 -34 11 9 14 8 14 -7 0 -33 50 -70 90 -68 19 1 29 0 23 -3
-18 -7 -16 -23 2 -23 8 0 15 -9 15 -20 0 -11 6 -20 14 -20 8 0 16 -4 18 -9 5
-14 48 -24 48 -10 0 9 3 9 15 -1 12 -10 14 -5 13 34 -1 52 6 66 25 47 9 -11 9
-14 0 -18 -18 -6 -16 -28 2 -43 25 -21 17 -37 -22 -45 l-36 -7 27 -18 c15 -10
36 -16 46 -13 12 3 19 -3 24 -19 5 -19 8 -20 16 -8 8 13 10 13 10 -2 0 -21 33
-40 54 -32 10 4 16 1 16 -9 0 -21 23 -27 35 -10 9 12 15 12 38 0 24 -13 26
-15 10 -21 -17 -7 -17 -8 1 -22 30 -21 36 -17 36 22 0 24 4 33 12 28 7 -5 9
-2 5 8 -3 9 1 24 8 35 8 10 15 16 15 13 1 -3 3 -13 5 -22 4 -21 37 -67 49 -68
5 0 3 7 -4 15 -10 12 -10 15 4 15 9 0 16 -7 16 -16 0 -13 6 -11 24 9 14 15 29
35 35 44 7 13 13 15 21 7 13 -13 3 -44 -16 -44 -8 0 -14 -7 -14 -16 0 -11 -5
-14 -16 -10 -14 5 -15 4 -4 -9 10 -13 10 -19 -4 -33 -22 -25 -11 -33 22 -16
38 20 55 17 82 -11 16 -17 26 -21 31 -14 5 8 8 8 13 0 4 -6 2 -11 -3 -11 -6 0
-11 -7 -11 -15 0 -20 54 -32 255 -59 40 -5 40 -5 40 27 0 18 5 31 11 30 7 -1
9 8 6 23 -4 21 -1 25 14 22 15 -2 19 3 20 27 2 51 3 53 24 48 37 -10 45 -31
21 -56 -25 -28 -27 -43 -5 -51 24 -9 54 -7 54 4 0 6 5 10 10 10 6 0 10 -9 10
-20 0 -26 24 -26 41 0 10 14 18 17 29 11 12 -8 9 -12 -11 -20 -30 -11 -43 -36
-26 -48 15 -12 77 -16 77 -6 0 5 33 9 73 9 82 2 262 42 385 86 64 23 82 34 82
49 0 16 3 17 18 8 15 -9 37 -2 122 41 57 28 99 55 93 58 -6 4 -9 18 -8 32 1
22 6 25 39 25 26 0 42 6 52 19 20 28 18 33 -17 40 -35 7 -30 26 7 26 13 0 24
4 24 9 0 5 -8 7 -18 4 -13 -3 -30 7 -52 30 -18 20 -39 33 -46 30 -8 -3 -14 1
-15 8 0 8 -4 4 -9 -7 -6 -16 -15 -20 -34 -17 -14 3 -26 10 -26 15 0 5 10 6 23
2 12 -3 19 -3 15 1 -4 4 -1 17 7 27 17 25 9 49 -12 41 -11 -4 -14 -2 -9 5 4 7
14 12 22 12 8 0 14 6 14 13 0 8 -11 12 -30 11 -29 -2 -29 -2 -12 22 20 27 32
31 32 9 0 -12 7 -14 28 -9 15 4 32 10 37 15 13 10 55 8 55 -3 0 -4 -7 -8 -15
-8 -8 0 -15 -7 -15 -15 0 -9 -8 -14 -22 -12 -14 1 -23 -4 -26 -15 -3 -15 4
-18 37 -18 30 0 41 -4 41 -15 0 -8 4 -15 9 -15 5 0 18 -3 28 -7 17 -6 17 -6 0
14 -16 18 -16 21 -2 33 13 11 14 10 9 -5 -6 -16 -3 -17 32 -11 46 9 48 11 39
26 -6 9 -10 9 -16 -1 -7 -11 -9 -11 -9 -1 0 7 -5 10 -10 7 -6 -4 -8 -12 -4
-18 3 -7 -2 -3 -11 8 -16 19 -15 20 37 25 29 3 58 2 65 -3 6 -4 14 -3 18 3 11
17 27 11 20 -9 -4 -12 0 -21 11 -25 10 -4 14 -13 11 -26 -3 -11 -2 -22 3 -25
4 -3 10 5 13 16 3 12 10 18 17 14 8 -5 8 -11 -1 -21 -7 -8 -7 -14 -1 -14 15 0
35 28 27 40 -3 5 1 10 9 10 21 0 106 90 106 113 0 9 -7 17 -15 17 -8 0 -15 4
-15 10 0 6 9 6 26 -1 15 -5 28 -8 29 -7 1 2 -13 18 -32 36 -29 29 -33 31 -33
14 0 -11 -7 -28 -16 -36 -8 -9 -12 -16 -7 -16 4 0 0 -5 -10 -11 -28 -16 -52
-3 -53 31 -1 24 3 30 20 30 12 0 28 4 36 10 12 8 12 10 -3 16 -24 9 -21 34 3
34 11 0 20 5 20 11 0 6 -7 8 -16 5 -8 -3 -12 -2 -9 3 3 5 1 12 -4 15 -5 3 -7
15 -4 26 3 11 0 27 -7 35 -11 13 -10 14 4 9 9 -3 16 -12 16 -19 0 -17 32 -29
40 -15 4 6 13 10 20 8 7 -2 16 8 20 22 6 24 6 24 13 -7 4 -20 13 -33 22 -33 8
0 14 3 14 8 -4 25 3 42 19 42 11 0 13 -3 5 -8 -7 -4 -9 -12 -5 -18 11 -16 41
-24 47 -14 4 6 1 10 -4 10 -6 0 -11 9 -11 21 0 11 5 17 10 14 6 -3 10 0 10 9
0 8 -3 16 -7 19 -5 2 -3 3 3 1 6 -1 17 3 23 9 8 8 14 8 23 -1 9 -9 8 -12 -5
-12 -10 0 -14 -5 -11 -14 3 -8 1 -24 -6 -35 -20 -39 5 -21 28 19 26 46 28 60
7 60 -34 0 -11 49 30 63 17 6 17 5 -3 -13 -21 -17 -23 -40 -3 -40 9 0 41 66
41 85 0 11 -7 12 -32 4 -40 -11 -38 -11 -38 1 0 6 13 10 29 10 17 0 33 5 36
10 4 6 10 8 15 5 11 -7 42 73 34 87 -4 6 -3 8 3 5 6 -4 21 30 36 81 56 193 76
295 59 306 -11 7 -4 46 8 46 4 0 10 16 12 35 3 26 1 34 -9 31 -19 -8 -16 4 5
20 14 11 14 15 3 23 -9 6 -10 11 -2 15 7 4 11 40 11 91 0 71 -3 84 -17 88 -16
4 -16 5 -1 6 14 1 16 8 11 39 -3 20 -10 40 -16 43 -5 4 -6 13 -1 20 26 43 -57
355 -144 542 -36 77 -49 97 -66 97 -16 0 -18 2 -7 9 8 5 11 16 8 25 -12 30
-110 176 -119 176 -4 0 -8 5 -8 11 0 18 -52 74 -69 74 -9 0 -15 8 -14 19 1 11
-32 53 -79 102 -68 71 -84 83 -104 78 -14 -4 -24 -2 -24 5 0 6 8 8 18 5 31
-10 -71 76 -168 141 -110 74 -239 142 -343 181 -40 14 -81 30 -92 35 -43 19
-215 59 -316 74 -115 16 -375 18 -469 4z m547 -241 c22 -18 52 -83 64 -138 6
-27 15 -48 20 -44 5 3 9 -1 9 -10 0 -8 -6 -17 -12 -19 -10 -4 -10 -8 1 -15 9
-7 10 -12 2 -16 -18 -11 -14 -171 4 -186 22 -18 18 -49 -8 -61 -18 -8 -27 -29
-46 -100 -12 -49 -34 -117 -47 -151 -40 -97 -158 -328 -199 -388 -21 -30 -38
-63 -37 -73 0 -9 -3 -15 -7 -13 -4 3 -27 -14 -50 -38 l-43 -43 31 -119 c18
-65 37 -125 45 -132 8 -8 41 -14 89 -15 43 -1 77 -5 77 -8 0 -10 31 -21 70
-25 46 -4 62 -8 78 -17 16 -11 6 -28 -13 -20 -8 3 -15 1 -15 -5 0 -16 29 -35
45 -28 19 7 33 -23 16 -33 -8 -5 -4 -21 15 -55 20 -35 29 -44 39 -36 9 7 16 6
25 -5 13 -16 6 -50 -9 -40 -17 10 -25 -18 -9 -29 12 -9 15 -23 11 -58 -3 -25
-1 -54 4 -63 6 -10 7 -31 3 -49 -25 -100 -33 -133 -34 -149 -1 -9 -16 -32 -33
-50 -17 -17 -33 -44 -37 -59 -6 -27 -26 -40 -26 -17 0 5 -5 7 -11 3 -8 -4 -8
-9 -1 -13 8 -4 8 -11 1 -21 -8 -11 -12 -12 -16 -2 -7 17 -23 15 -23 -4 0 -8
-4 -12 -10 -9 -15 9 -13 0 22 -122 25 -86 37 -113 50 -113 9 0 20 5 23 10 4 6
11 8 16 4 14 -8 -21 -46 -36 -40 -8 3 -10 -4 -7 -20 2 -13 9 -24 16 -24 8 0 8
-2 -1 -8 -7 -5 -9 -20 -4 -48 12 -63 -4 -175 -32 -230 -43 -84 -128 -161 -207
-189 -23 -8 -49 -23 -56 -33 -8 -10 -13 -12 -14 -4 0 6 -8 12 -17 12 -15 0
-16 -2 -3 -10 12 -8 12 -10 1 -10 -11 0 -10 -5 4 -20 18 -19 17 -20 -1 -20
-11 0 -25 -5 -32 -12 -9 -9 -12 -6 -12 15 0 15 5 27 10 27 23 0 8 26 -16 28
-22 2 -25 0 -14 -13 7 -9 8 -15 2 -15 -5 0 -12 7 -16 15 -3 8 -14 15 -24 15
-11 0 -36 7 -55 15 -46 19 -47 19 -47 -3 0 -10 -6 -27 -14 -37 -12 -16 -16
-17 -30 -6 -21 18 -20 28 4 34 24 6 26 30 4 47 -8 8 -14 9 -13 4 7 -40 -21
-55 -50 -26 -12 12 -12 15 0 23 9 5 16 3 20 -8 5 -15 6 -15 12 1 5 13 -4 31
-30 60 -20 22 -40 43 -45 44 -4 2 -8 11 -8 20 -1 9 -9 35 -20 57 -12 25 -16
51 -13 69 4 20 3 27 -5 22 -6 -3 -14 -1 -18 5 -4 7 -3 9 4 5 6 -3 13 -2 16 3
4 5 -4 11 -16 13 -15 2 -24 11 -26 26 -2 15 -9 22 -17 18 -8 -3 -17 -1 -20 4
-4 6 1 10 9 10 11 0 16 9 16 27 0 23 2 25 13 11 18 -22 57 -30 57 -11 0 10 -6
13 -16 9 -10 -4 -14 -1 -11 6 2 7 13 12 24 10 16 -2 20 2 18 20 -3 31 -2 30
-25 18 -14 -8 -20 -8 -20 0 0 6 7 13 15 16 8 4 15 12 15 20 0 7 8 17 17 22 15
9 14 11 -5 23 -12 8 -22 19 -22 25 0 8 -11 9 -32 4 -18 -4 -32 -12 -30 -18 1
-7 -4 -12 -10 -12 -7 0 -23 -3 -35 -6 -15 -4 -23 -2 -23 6 0 6 5 10 11 8 7 -2
31 16 54 41 37 39 45 43 59 32 9 -7 16 -10 16 -7 0 19 30 -26 31 -46 1 -20 2
-19 15 9 8 18 19 33 25 33 6 0 9 6 6 14 -3 8 0 19 6 24 13 11 17 12 42 12 9 0
15 9 15 25 0 15 -6 25 -14 25 -7 0 -34 12 -60 26 -30 17 -53 23 -67 19 -18 -6
-20 -4 -14 14 3 12 3 21 -2 21 -4 0 -31 23 -60 50 -29 28 -57 50 -63 50 -6 0
-9 3 -6 8 2 4 -13 34 -34 66 -21 32 -47 84 -57 117 -10 32 -22 59 -26 59 -5 0
-6 4 -2 10 3 5 1 37 -4 72 -9 51 -7 83 10 178 27 158 77 290 148 395 19 28 19
30 3 37 -15 7 -14 7 3 6 14 -1 53 33 125 109 58 61 110 111 116 112 6 0 18 9
27 19 14 15 13 26 -9 122 -13 58 -27 140 -31 183 -5 61 -9 77 -22 77 -13 1
-13 3 3 15 11 8 14 15 8 15 -7 0 -12 5 -12 11 0 5 5 7 10 4 6 -4 10 5 10 20 0
49 32 180 61 255 77 193 200 328 338 371 50 15 60 15 90 3 19 -8 41 -20 48
-26z m1095 -2232 c11 7 8 -11 -7 -48 -5 -13 -2 -18 9 -18 9 0 13 -6 10 -14 -4
-11 0 -13 14 -9 11 2 23 0 26 -6 5 -7 1 -8 -10 -4 -14 5 -15 3 -5 -15 6 -12
19 -25 27 -30 10 -6 13 -12 6 -16 -17 -10 -41 4 -44 27 -4 29 -40 30 -48 2 -5
-21 -12 -22 -77 -17 -17 2 -21 6 -16 20 6 16 5 15 -15 -2 -11 -10 -22 -27 -24
-39 -5 -32 -26 -31 -33 2 -6 27 -10 30 -35 25 -17 -4 -37 0 -53 10 -22 15 -23
20 -14 41 7 13 15 21 19 19 5 -3 8 0 8 5 0 24 39 9 59 -21 17 -25 21 -28 20
-13 -3 35 1 38 21 20 16 -14 20 -15 20 -4 0 8 11 16 25 17 22 2 25 -1 19 -23
-6 -25 -6 -25 22 -10 16 8 38 15 48 15 19 0 19 1 -1 23 -28 31 -36 57 -17 57
8 0 18 8 22 18 6 16 7 16 10 -1 2 -9 8 -14 14 -11z"/>
<path d="M2605 3895 c-69 -74 -150 -262 -180 -418 -16 -85 -21 -362 -6 -385
11 -18 112 82 166 163 111 168 178 436 146 585 -21 97 -67 117 -126 55z"/>
<path d="M2395 2673 c-100 -85 -155 -140 -155 -156 0 -11 -5 -15 -11 -11 -12
7 -98 -74 -99 -93 0 -7 -4 -13 -10 -13 -5 0 -10 -9 -10 -20 0 -11 -5 -19 -12
-18 -6 2 -23 -24 -36 -56 -42 -103 -29 -261 30 -381 28 -56 68 -106 79 -100 5
3 6 0 4 -8 -9 -23 94 -97 134 -97 12 0 21 -4 21 -9 0 -13 68 -34 86 -27 9 3
24 1 36 -5 16 -8 22 -7 34 8 11 15 15 16 23 4 17 -26 171 18 171 49 0 8 -19
85 -42 171 -44 162 -51 174 -85 131 -9 -11 -13 -12 -13 -3 0 8 -6 11 -16 7
-14 -5 -15 -4 -4 9 7 8 17 15 23 15 6 0 18 8 27 17 15 16 15 22 1 70 -8 30
-20 53 -28 53 -7 0 -13 7 -13 15 0 8 4 15 9 15 5 0 7 8 4 19 -4 15 -10 17 -38
11 -81 -18 -133 -70 -142 -141 -6 -40 -5 -43 10 -30 22 17 22 3 1 -21 -15 -15
-15 -24 -4 -65 21 -78 54 -127 112 -164 66 -41 62 -38 56 -44 -3 -3 -24 1 -47
8 -37 13 -57 8 -31 -8 6 -4 7 -11 4 -17 -4 -7 -10 -4 -17 7 -8 14 -11 15 -18
4 -6 -10 -8 -6 -5 11 2 20 -6 31 -44 56 -94 64 -149 150 -158 248 -3 34 -9 63
-13 66 -14 9 105 220 124 220 4 0 25 13 48 29 22 16 53 33 70 36 16 4 29 13
29 20 0 11 -50 207 -54 212 0 1 -14 -10 -31 -24z"/>
<path d="M2600 2277 c0 -3 4 -17 10 -31 10 -27 38 -34 56 -16 7 7 16 6 27 -2
15 -12 13 -16 -13 -40 -17 -16 -28 -25 -25 -21 6 8 -14 33 -27 33 -5 0 -5 -7
0 -17 5 -10 13 -36 17 -58 10 -55 14 -59 38 -38 l22 18 -21 -25 -22 -25 33
-100 c18 -55 33 -94 34 -87 1 7 6 10 11 7 8 -5 7 -11 0 -21 -8 -9 -9 -22 -3
-41 l10 -28 18 28 c49 75 64 310 19 293 -7 -3 -16 -1 -19 3 -3 5 2 11 10 15 8
3 15 13 15 21 0 10 -5 13 -12 9 -7 -5 -9 -2 -5 8 3 9 -6 29 -23 49 -16 19 -29
30 -30 26 0 -5 -13 1 -29 12 -28 20 -91 39 -91 28z"/>
<path d="M2627 1633 c-37 -13 -101 -26 -141 -30 -74 -6 -74 -6 -70 -33 4 -23
1 -28 -20 -32 -16 -3 -32 2 -44 12 -23 22 -73 15 -79 -10 -3 -10 -13 -20 -24
-23 -24 -6 -25 -37 -1 -37 9 0 23 -9 30 -20 15 -24 37 -27 28 -3 -6 15 -5 15
13 -1 19 -17 20 -17 30 2 6 11 7 22 2 24 -4 2 -12 13 -15 26 -6 18 -3 22 13
22 17 0 19 -6 18 -42 -1 -23 3 -43 9 -45 16 -5 27 28 14 41 -5 5 -10 14 -10
19 0 12 21 4 23 -8 1 -14 21 -34 29 -29 3 2 4 -6 1 -18 -3 -13 -3 -20 1 -16 9
7 77 -65 96 -102 19 -36 17 -133 -4 -164 -9 -15 -14 -32 -10 -39 4 -7 4 -9 -1
-5 -4 4 -22 -4 -39 -17 -53 -43 -56 -44 -101 -50 -11 -1 -23 -3 -27 -4 -14 -2
5 -36 35 -64 17 -15 37 -25 44 -23 7 3 13 0 13 -7 0 -7 3 -8 8 -2 4 6 17 15
29 22 17 10 22 9 27 -2 3 -8 -3 -19 -12 -24 -14 -9 -12 -10 13 -11 49 0 147
29 187 56 41 26 93 97 84 113 -3 5 -1 11 5 13 17 6 21 128 4 128 -7 0 -15 6
-17 13 -8 19 2 37 19 37 11 0 14 6 9 23 -3 12 -6 26 -6 30 0 5 -4 6 -9 2 -5
-3 -12 -1 -16 5 -3 5 -1 10 4 10 6 0 11 11 11 25 0 14 -5 25 -11 25 -6 0 -9 6
-6 14 3 8 -3 43 -13 78 -10 34 -24 82 -30 106 -6 23 -14 41 -18 41 -4 -1 -38
-12 -75 -26z"/>
<path d="M4145 3389 c-4 -5 -13 -8 -21 -5 -9 3 -1 -20 20 -62 114 -229 199
-573 196 -794 -1 -27 4 -48 9 -48 6 0 8 7 4 16 -5 13 -2 15 17 9 15 -5 20 -4
16 4 -4 6 -14 11 -22 11 -8 0 -14 7 -14 15 0 8 9 15 20 15 25 0 26 18 3 37
-10 8 -12 11 -4 7 21 -11 7 164 -25 305 -40 176 -121 401 -145 401 -6 0 -9 7
-5 15 3 9 -3 24 -12 33 -10 10 -17 23 -15 29 5 15 -14 26 -22 12z"/>
<path d="M4370 2481 c0 -6 -6 -11 -14 -11 -11 0 -16 -19 -20 -67 -5 -61 -31
-250 -44 -327 -3 -21 -1 -27 8 -21 8 5 11 3 8 -6 -3 -8 -9 -13 -14 -12 -5 1
-30 -59 -55 -133 -25 -74 -42 -134 -38 -134 5 0 9 8 9 18 0 22 17 48 26 39 4
-3 1 -13 -5 -21 -8 -9 -10 -24 -6 -37 7 -20 8 -20 17 -6 5 10 6 22 3 28 -4 6
0 16 8 22 19 15 67 162 67 205 0 17 4 32 8 32 5 0 9 6 10 13 1 6 8 46 17 87 9
41 15 86 13 100 -1 14 1 30 5 37 4 6 3 15 -3 18 -7 4 -7 11 -2 18 15 18 25
154 13 162 -6 3 -11 1 -11 -4z"/>
<path d="M741 1908 c-1 -9 -8 -21 -17 -26 -15 -8 -14 -15 6 -68 12 -32 29 -75
39 -94 9 -19 33 -66 52 -105 19 -38 41 -77 51 -86 9 -10 18 -24 20 -33 6 -29
123 -187 126 -171 4 16 14 19 25 8 4 -3 1 -13 -5 -21 -10 -11 -9 -17 5 -27 9
-7 17 -16 17 -21 0 -12 184 -193 231 -228 32 -23 38 -24 43 -10 11 27 7 37 -9
24 -15 -13 -19 -8 -16 22 1 9 -3 19 -9 23 -5 3 -10 1 -10 -4 0 -6 -5 -11 -10
-11 -6 0 -10 8 -8 18 2 11 -3 16 -14 14 -11 -2 -18 5 -20 20 -2 15 -10 23 -23
23 -12 0 -19 6 -18 16 2 8 -17 35 -42 59 -25 24 -45 39 -45 32 0 -7 -8 -12
-17 -12 -15 0 -15 1 2 13 20 15 13 37 -11 37 -8 0 -13 3 -10 8 2 4 -28 51 -69
103 -46 61 -101 153 -150 250 -42 85 -81 153 -86 152 -4 -2 -8 12 -8 30 1 17
-4 43 -9 57 -7 17 -11 19 -11 8z"/>
<path d="M3441 888 c-7 -17 -10 -18 -10 -6 -1 14 -20 8 -110 -35 -64 -30 -110
-58 -111 -67 -1 -9 -3 -11 -6 -3 -7 17 -120 -27 -140 -55 -12 -18 -18 -20 -33
-10 -11 7 -26 8 -37 3 -11 -5 -28 -10 -40 -11 -12 -1 -57 -10 -100 -19 -43 -9
-109 -19 -146 -22 -53 -5 -68 -9 -68 -22 0 -13 -2 -13 -9 -3 -9 15 -48 13 -43
-2 2 -4 -5 -14 -15 -22 -16 -13 -11 -14 45 -9 146 12 182 17 182 26 0 5 14 6
30 3 19 -4 30 -2 30 4 0 6 6 9 14 6 20 -8 183 37 299 82 79 30 95 39 86 50 -8
10 -8 14 -1 14 6 0 13 -4 17 -10 10 -16 55 11 55 33 0 13 5 17 15 13 9 -3 15
0 15 9 0 17 31 28 62 20 13 -2 31 2 42 10 17 13 17 15 2 30 -15 15 -17 15 -25
-7z"/>
<path d="M2055 674 c-14 -22 -15 -26 -2 -21 8 3 18 2 23 -3 13 -12 200 -42
243 -39 20 2 43 -1 51 -6 13 -8 13 -6 1 8 -12 15 -9 21 12 18 4 0 7 3 7 9 0 5
-13 7 -30 4 -19 -4 -30 -2 -30 5 0 6 -12 11 -27 11 -29 0 -183 25 -213 35 -12
4 -23 -4 -35 -21z"/>
</g>
</svg>
